<?xml version="1.0" encoding="UTF-8"?>
<!DOCTYPE svg PUBLIC "-//W3C//DTD SVG 1.1//EN" "http://www.w3.org/Graphics/SVG/1.1/DTD/svg11.dtd">
<svg xmlns="http://www.w3.org/2000/svg" version="1.1" width="1500px" height="500px" style="shape-rendering:geometricPrecision; text-rendering:geometricPrecision; image-rendering:optimizeQuality; fill-rule:evenodd; clip-rule:evenodd" xmlns:xlink="http://www.w3.org/1999/xlink">
<g><path style="opacity:1" fill="#edeeed" d="M -0.5,-0.5 C 24.5,-0.5 49.5,-0.5 74.5,-0.5C 74.5,166.167 74.5,332.833 74.5,499.5C 49.5,499.5 24.5,499.5 -0.5,499.5C -0.5,332.833 -0.5,166.167 -0.5,-0.5 Z"/></g>
<g><path style="opacity:1" fill="#00adb5" d="M 74.5,-0.5 C 524.5,-0.5 974.5,-0.5 1424.5,-0.5C 1424.5,166.167 1424.5,332.833 1424.5,499.5C 974.5,499.5 524.5,499.5 74.5,499.5C 74.5,332.833 74.5,166.167 74.5,-0.5 Z"/></g>
<g><path style="opacity:1" fill="#edeeed" d="M 1424.5,-0.5 C 1449.5,-0.5 1474.5,-0.5 1499.5,-0.5C 1499.5,166.167 1499.5,332.833 1499.5,499.5C 1474.5,499.5 1449.5,499.5 1424.5,499.5C 1424.5,332.833 1424.5,166.167 1424.5,-0.5 Z"/></g>
<g><path style="opacity:1" fill="#e9eced" d="M 249.5,107.5 C 307.833,107.5 366.167,107.5 424.5,107.5C 424.5,130.167 424.5,152.833 424.5,175.5C 406.5,175.5 388.5,175.5 370.5,175.5C 370.5,193.5 370.5,211.5 370.5,229.5C 348.167,229.5 325.833,229.5 303.5,229.5C 303.5,211.5 303.5,193.5 303.5,175.5C 285.5,175.5 267.5,175.5 249.5,175.5C 249.5,152.833 249.5,130.167 249.5,107.5 Z"/></g>
<g><path style="opacity:1" fill="#06adb5" d="M 262.5,121.5 C 276.167,121.5 289.833,121.5 303.5,121.5C 303.5,134.833 303.5,148.167 303.5,161.5C 289.833,161.5 276.167,161.5 262.5,161.5C 262.5,148.167 262.5,134.833 262.5,121.5 Z"/></g>
<g><path style="opacity:1" fill="#06adb5" d="M 316.5,121.5 C 330.167,121.5 343.833,121.5 357.5,121.5C 357.5,134.833 357.5,148.167 357.5,161.5C 343.833,161.5 330.167,161.5 316.5,161.5C 316.5,148.167 316.5,134.833 316.5,121.5 Z"/></g>
<g><path style="opacity:1" fill="#06adb5" d="M 370.5,121.5 C 384.167,121.5 397.833,121.5 411.5,121.5C 411.5,134.833 411.5,148.167 411.5,161.5C 397.833,161.5 384.167,161.5 370.5,161.5C 370.5,148.167 370.5,134.833 370.5,121.5 Z"/></g>
<g><path style="opacity:1" fill="#06adb5" d="M 316.5,175.5 C 330.167,175.5 343.833,175.5 357.5,175.5C 357.5,188.833 357.5,202.167 357.5,215.5C 343.833,215.5 330.167,215.5 316.5,215.5C 316.5,202.167 316.5,188.833 316.5,175.5 Z"/></g>
<g><path style="opacity:1" fill="#91d4d7" d="M 1129.5,207.5 C 1125.17,207.5 1120.83,207.5 1116.5,207.5C 1116.5,229.167 1116.5,250.833 1116.5,272.5C 1115.5,250.673 1115.17,228.673 1115.5,206.5C 1120.36,206.181 1125.03,206.514 1129.5,207.5 Z"/></g>
<g><path style="opacity:1" fill="#edeeed" d="M 1129.5,207.5 C 1129.5,229.167 1129.5,250.833 1129.5,272.5C 1125.17,272.5 1120.83,272.5 1116.5,272.5C 1116.5,250.833 1116.5,229.167 1116.5,207.5C 1120.83,207.5 1125.17,207.5 1129.5,207.5 Z"/></g>
<g><path style="opacity:1" fill="#ebeded" d="M 604.5,209.5 C 634.886,210.628 646.72,225.962 640,255.5C 626.901,274.316 610.068,278.483 589.5,268C 577.218,259.687 572.718,248.187 576,233.5C 580.52,219.472 590.02,211.472 604.5,209.5 Z"/></g>
<g><path style="opacity:1" fill="#ebeded" d="M 850.5,210.5 C 868.167,210.5 885.833,210.5 903.5,210.5C 903.5,214.167 903.5,217.833 903.5,221.5C 896.833,221.5 890.167,221.5 883.5,221.5C 883.5,238.5 883.5,255.5 883.5,272.5C 878.833,272.5 874.167,272.5 869.5,272.5C 869.5,255.833 869.5,239.167 869.5,222.5C 863.355,221.51 857.022,221.177 850.5,221.5C 850.5,217.833 850.5,214.167 850.5,210.5 Z"/></g>
<g><path style="opacity:1" fill="#eceded" d="M 1213.5,225.5 C 1216.96,226.482 1220.63,226.815 1224.5,226.5C 1224.5,229.833 1224.5,233.167 1224.5,236.5C 1220.83,236.5 1217.17,236.5 1213.5,236.5C 1213.33,244.174 1213.5,251.841 1214,259.5C 1214.83,260.333 1215.67,261.167 1216.5,262C 1219.61,262.123 1222.61,262.29 1225.5,262.5C 1230.08,270.251 1227.58,273.584 1218,272.5C 1208.97,273.657 1202.97,269.99 1200,261.5C 1199.5,253.173 1199.33,244.84 1199.5,236.5C 1197.17,236.5 1194.83,236.5 1192.5,236.5C 1192.5,233.167 1192.5,229.833 1192.5,226.5C 1194.83,226.5 1197.17,226.5 1199.5,226.5C 1199.5,222.5 1199.5,218.5 1199.5,214.5C 1204.17,214.5 1208.83,214.5 1213.5,214.5C 1213.5,218.167 1213.5,221.833 1213.5,225.5 Z"/></g>
<g><path style="opacity:1" fill="#eaeded" d="M 195.5,215.5 C 217.833,215.5 240.167,215.5 262.5,215.5C 262.5,233.5 262.5,251.5 262.5,269.5C 280.5,269.5 298.5,269.5 316.5,269.5C 316.5,287.5 316.5,305.5 316.5,323.5C 330.167,323.5 343.833,323.5 357.5,323.5C 357.5,305.5 357.5,287.5 357.5,269.5C 375.5,269.5 393.5,269.5 411.5,269.5C 411.5,251.5 411.5,233.5 411.5,215.5C 433.833,215.5 456.167,215.5 478.5,215.5C 478.5,274.167 478.5,332.833 478.5,391.5C 384.167,391.5 289.833,391.5 195.5,391.5C 195.5,332.833 195.5,274.167 195.5,215.5 Z"/></g>
<g><path style="opacity:1" fill="#0daeb6" d="M 603.5,221.5 C 624.27,221.752 631.77,231.752 626,251.5C 619.658,260.549 611.158,263.382 600.5,260C 589.987,253.464 586.82,244.297 591,232.5C 594.148,227.509 598.314,223.843 603.5,221.5 Z"/></g>
<g><path style="opacity:1" fill="#99d7d9" d="M 850.5,210.5 C 850.5,214.167 850.5,217.833 850.5,221.5C 857.022,221.177 863.355,221.51 869.5,222.5C 862.833,222.5 856.167,222.5 849.5,222.5C 849.183,218.298 849.517,214.298 850.5,210.5 Z"/></g>
<g><path style="opacity:1" fill="#8fd4d7" d="M 903.5,221.5 C 897.355,222.49 891.022,222.823 884.5,222.5C 884.83,239.342 884.497,256.008 883.5,272.5C 883.5,255.5 883.5,238.5 883.5,221.5C 890.167,221.5 896.833,221.5 903.5,221.5 Z"/></g>
<g><path style="opacity:1" fill="#eceded" d="M 653.5,224.5 C 657.5,224.5 661.5,224.5 665.5,224.5C 665.338,226.527 665.505,228.527 666,230.5C 674.834,223.416 684.334,222.583 694.5,228C 704.431,236.458 707.265,246.958 703,259.5C 696.486,271.167 686.653,275.333 673.5,272C 671.246,270.623 669.08,269.123 667,267.5C 666.5,274.826 666.334,282.159 666.5,289.5C 662.167,289.5 657.833,289.5 653.5,289.5C 653.5,267.833 653.5,246.167 653.5,224.5 Z"/></g>
<g><path style="opacity:1" fill="#eceded" d="M 728.5,224.5 C 749.474,222.144 760.141,231.477 760.5,252.5C 748.5,252.5 736.5,252.5 724.5,252.5C 725.207,257.71 728.207,260.877 733.5,262C 739.877,263.521 745.377,262.021 750,257.5C 751.977,260.312 754.144,262.978 756.5,265.5C 751.459,271.021 745.126,273.355 737.5,272.5C 717.882,272.048 709.048,262.048 711,242.5C 713.683,233.318 719.517,227.318 728.5,224.5 Z"/></g>
<g><path style="opacity:1" fill="#ebeded" d="M 770.5,224.5 C 774.5,224.5 778.5,224.5 782.5,224.5C 782.201,226.604 782.534,228.604 783.5,230.5C 789.772,224.861 797.106,223.027 805.5,225C 812.097,227.263 816.264,231.763 818,238.5C 818.5,249.828 818.667,261.162 818.5,272.5C 813.833,272.5 809.167,272.5 804.5,272.5C 804.666,262.494 804.5,252.494 804,242.5C 802.878,237.714 799.878,235.714 795,236.5C 789.758,236.291 786.092,238.624 784,243.5C 783.5,253.161 783.334,262.828 783.5,272.5C 779.167,272.5 774.833,272.5 770.5,272.5C 770.5,256.5 770.5,240.5 770.5,224.5 Z"/></g>
<g><path style="opacity:1" fill="#eceded" d="M 920.5,224.5 C 941.474,222.144 952.141,231.477 952.5,252.5C 940.5,252.5 928.5,252.5 916.5,252.5C 917.207,257.71 920.207,260.877 925.5,262C 931.877,263.521 937.377,262.021 942,257.5C 943.977,260.312 946.144,262.978 948.5,265.5C 943.459,271.021 937.126,273.355 929.5,272.5C 909.882,272.048 901.048,262.048 903,242.5C 905.683,233.318 911.517,227.318 920.5,224.5 Z"/></g>
<g><path style="opacity:1" fill="#eceded" d="M 962.5,224.5 C 966.5,224.5 970.5,224.5 974.5,224.5C 974.338,226.527 974.505,228.527 975,230.5C 982.211,224.346 990.377,222.846 999.5,226C 1001.73,227.61 1003.73,229.443 1005.5,231.5C 1014.68,223.651 1024.68,222.485 1035.5,228C 1038.94,231.111 1041.11,234.944 1042,239.5C 1042.5,250.495 1042.67,261.495 1042.5,272.5C 1037.83,272.5 1033.17,272.5 1028.5,272.5C 1028.67,262.161 1028.5,251.828 1028,241.5C 1026.52,237.52 1023.69,235.854 1019.5,236.5C 1013.95,236.367 1010.45,239.034 1009,244.5C 1008.5,253.827 1008.33,263.161 1008.5,272.5C 1004.17,272.5 999.833,272.5 995.5,272.5C 995.666,262.494 995.5,252.494 995,242.5C 993.7,238.013 990.7,236.013 986,236.5C 980.767,236.117 977.434,238.45 976,243.5C 975.5,253.161 975.334,262.828 975.5,272.5C 971.167,272.5 966.833,272.5 962.5,272.5C 962.5,256.5 962.5,240.5 962.5,224.5 Z"/></g>
<g><path style="opacity:1" fill="#eceded" d="M 1055.5,224.5 C 1059.5,224.5 1063.5,224.5 1067.5,224.5C 1067.34,226.527 1067.5,228.527 1068,230.5C 1076.83,223.416 1086.33,222.583 1096.5,228C 1106.43,236.458 1109.26,246.958 1105,259.5C 1098.49,271.167 1088.65,275.333 1075.5,272C 1073.25,270.623 1071.08,269.123 1069,267.5C 1068.5,274.826 1068.33,282.159 1068.5,289.5C 1064.17,289.5 1059.83,289.5 1055.5,289.5C 1055.5,267.833 1055.5,246.167 1055.5,224.5 Z"/></g>
<g><path style="opacity:1" fill="#ebeded" d="M 1153.5,224.5 C 1161.86,223.624 1169.86,224.79 1177.5,228C 1180.43,230.264 1182.6,233.098 1184,236.5C 1184.5,248.495 1184.67,260.495 1184.5,272.5C 1180.5,272.5 1176.5,272.5 1172.5,272.5C 1172.79,270.712 1172.45,269.045 1171.5,267.5C 1169.64,269.192 1167.64,270.692 1165.5,272C 1160.17,272.667 1154.83,272.667 1149.5,272C 1141.39,267.936 1138.56,261.436 1141,252.5C 1143.26,249.567 1146.1,247.4 1149.5,246C 1156.76,244.652 1164.09,244.152 1171.5,244.5C 1171.34,240.828 1169.68,237.995 1166.5,236C 1159.75,234.937 1153.25,235.77 1147,238.5C 1144.8,235.952 1142.97,233.118 1141.5,230C 1145.48,227.838 1149.48,226.005 1153.5,224.5 Z"/></g>
<g><path style="opacity:1" fill="#eceded" d="M 1250.5,224.5 C 1271.47,222.144 1282.14,231.477 1282.5,252.5C 1270.5,252.5 1258.5,252.5 1246.5,252.5C 1247.21,257.71 1250.21,260.877 1255.5,262C 1261.88,263.521 1267.38,262.021 1272,257.5C 1273.98,260.312 1276.14,262.978 1278.5,265.5C 1273.46,271.021 1267.13,273.355 1259.5,272.5C 1239.88,272.048 1231.05,262.048 1233,242.5C 1235.68,233.318 1241.52,227.318 1250.5,224.5 Z"/></g>
<g><path style="opacity:1" fill="#a6dadd" d="M 1213.5,225.5 C 1217.5,225.5 1221.5,225.5 1225.5,225.5C 1225.81,229.371 1225.48,233.038 1224.5,236.5C 1224.5,233.167 1224.5,229.833 1224.5,226.5C 1220.63,226.815 1216.96,226.482 1213.5,225.5 Z"/></g>
<g><path style="opacity:1" fill="#06adb5" d="M 208.5,229.5 C 222.167,229.5 235.833,229.5 249.5,229.5C 249.5,242.833 249.5,256.167 249.5,269.5C 235.833,269.5 222.167,269.5 208.5,269.5C 208.5,256.167 208.5,242.833 208.5,229.5 Z"/></g>
<g><path style="opacity:1" fill="#06adb5" d="M 424.5,229.5 C 438.167,229.5 451.833,229.5 465.5,229.5C 465.5,242.833 465.5,256.167 465.5,269.5C 451.833,269.5 438.167,269.5 424.5,269.5C 424.5,256.167 424.5,242.833 424.5,229.5 Z"/></g>
<g><path style="opacity:1" fill="#14afb6" d="M 731.5,234.5 C 740.137,232.902 745.471,236.235 747.5,244.5C 739.833,244.5 732.167,244.5 724.5,244.5C 724.874,239.793 727.208,236.46 731.5,234.5 Z"/></g>
<g><path style="opacity:1" fill="#14afb6" d="M 923.5,234.5 C 932.137,232.902 937.471,236.235 939.5,244.5C 931.833,244.5 924.167,244.5 916.5,244.5C 916.874,239.793 919.208,236.46 923.5,234.5 Z"/></g>
<g><path style="opacity:1" fill="#14afb6" d="M 1253.5,234.5 C 1262.14,232.902 1267.47,236.235 1269.5,244.5C 1261.83,244.5 1254.17,244.5 1246.5,244.5C 1246.87,239.793 1249.21,236.46 1253.5,234.5 Z"/></g>
<g><path style="opacity:1" fill="#10aeb6" d="M 675.5,235.5 C 688.319,235.504 693.152,241.838 690,254.5C 685.513,261.549 679.346,263.383 671.5,260C 665.34,252.905 665.007,245.571 670.5,238C 672.315,237.243 673.981,236.41 675.5,235.5 Z"/></g>
<g><path style="opacity:1" fill="#10aeb6" d="M 1077.5,235.5 C 1090.32,235.504 1095.15,241.838 1092,254.5C 1087.51,261.549 1081.35,263.383 1073.5,260C 1067.34,252.905 1067.01,245.571 1072.5,238C 1074.31,237.243 1075.98,236.41 1077.5,235.5 Z"/></g>
<g><path style="opacity:1" fill="#14aeb6" d="M 1157.5,252.5 C 1162.17,252.5 1166.83,252.5 1171.5,252.5C 1171.99,259.676 1168.66,263.342 1161.5,263.5C 1155,264.364 1152.5,261.697 1154,255.5C 1155.15,254.364 1156.31,253.364 1157.5,252.5 Z"/></g>
<g><path style="opacity:1" fill="#06adb5" d="M 208.5,283.5 C 222.167,283.5 235.833,283.5 249.5,283.5C 249.5,296.833 249.5,310.167 249.5,323.5C 235.833,323.5 222.167,323.5 208.5,323.5C 208.5,310.167 208.5,296.833 208.5,283.5 Z"/></g>
<g><path style="opacity:1" fill="#06adb5" d="M 262.5,283.5 C 276.167,283.5 289.833,283.5 303.5,283.5C 303.5,296.833 303.5,310.167 303.5,323.5C 289.833,323.5 276.167,323.5 262.5,323.5C 262.5,310.167 262.5,296.833 262.5,283.5 Z"/></g>
<g><path style="opacity:1" fill="#06adb5" d="M 370.5,283.5 C 384.167,283.5 397.833,283.5 411.5,283.5C 411.5,296.833 411.5,310.167 411.5,323.5C 397.833,323.5 384.167,323.5 370.5,323.5C 370.5,310.167 370.5,296.833 370.5,283.5 Z"/></g>
<g><path style="opacity:1" fill="#06adb5" d="M 424.5,283.5 C 438.167,283.5 451.833,283.5 465.5,283.5C 465.5,296.833 465.5,310.167 465.5,323.5C 451.833,323.5 438.167,323.5 424.5,323.5C 424.5,310.167 424.5,296.833 424.5,283.5 Z"/></g>
<g><path style="opacity:1" fill="#06adb5" d="M 208.5,337.5 C 222.167,337.5 235.833,337.5 249.5,337.5C 249.5,350.833 249.5,364.167 249.5,377.5C 235.833,377.5 222.167,377.5 208.5,377.5C 208.5,364.167 208.5,350.833 208.5,337.5 Z"/></g>
<g><path style="opacity:1" fill="#06adb5" d="M 262.5,337.5 C 276.167,337.5 289.833,337.5 303.5,337.5C 303.5,350.833 303.5,364.167 303.5,377.5C 289.833,377.5 276.167,377.5 262.5,377.5C 262.5,364.167 262.5,350.833 262.5,337.5 Z"/></g>
<g><path style="opacity:1" fill="#06adb5" d="M 316.5,337.5 C 330.167,337.5 343.833,337.5 357.5,337.5C 357.5,350.833 357.5,364.167 357.5,377.5C 343.833,377.5 330.167,377.5 316.5,377.5C 316.5,364.167 316.5,350.833 316.5,337.5 Z"/></g>
<g><path style="opacity:1" fill="#06adb5" d="M 370.5,337.5 C 384.167,337.5 397.833,337.5 411.5,337.5C 411.5,350.833 411.5,364.167 411.5,377.5C 397.833,377.5 384.167,377.5 370.5,377.5C 370.5,364.167 370.5,350.833 370.5,337.5 Z"/></g>
<g><path style="opacity:1" fill="#06adb5" d="M 424.5,337.5 C 438.167,337.5 451.833,337.5 465.5,337.5C 465.5,350.833 465.5,364.167 465.5,377.5C 451.833,377.5 438.167,377.5 424.5,377.5C 424.5,364.167 424.5,350.833 424.5,337.5 Z"/></g>
</svg>
