<svg xmlns="http://www.w3.org/2000/svg" 
width="1500" height="300" viewBox="0 0 300 500" 
version="1.1"
><path d="M 75 250 L 75 500 750 500 L 1425 500 1425 250 L 1425 0 750 0 L 75 0 75 250 M 250 142 L 250 176 277 176 L 304 176 304 203 L 304 230 337.500 230 L 371 230 371 203 L 371 176 398 176 L 425 176 425 142 L 425 108 337.500 108 L 250 108 250 142 M 263 142 L 263 162 283.500 162 L 304 162 304 142 L 304 122 283.500 122 L 263 122 263 142 M 317 142 L 317 162 337.500 162 L 358 162 358 142 L 358 122 337.500 122 L 317 122 317 142 M 371 142 L 371 162 391.500 162 L 412 162 412 142 L 412 122 391.500 122 L 371 122 371 142 M 317 196 L 317 216 337.500 216 L 358 216 358 196 L 358 176 337.500 176 L 317 176 317 196 M 1116 240 L 1116 273 1123 273 L 1130 273 1130 240 L 1130 207 1123 207 L 1116 207 1116 240 M 597.205 211.836 C 588.015 215.111, 579.203 223.978, 576.877 232.292 C 575.026 238.907, 575.442 248.951, 577.787 254.252 C 580.649 260.722, 587.240 267.479, 593.858 270.730 C 598.881 273.196, 600.597 273.500, 609.500 273.500 C 617.639 273.500, 620.370 273.098, 624.176 271.339 C 630.456 268.437, 637.045 262.188, 640.017 256.317 C 643.239 249.952, 643.937 238.337, 641.532 231.097 C 639.308 224.401, 632.360 216.813, 625.283 213.350 C 617.784 209.681, 605.162 209, 597.205 211.836 M 850 216.984 L 850 223 860 223 L 870 223 870 248 L 870 273 877.500 273 L 885 273 885 248 L 885 223 894.393 223 C 904.799 223, 904.647 223.105, 904.557 216 L 904.500 211.500 877.250 211.234 L 850 210.968 850 216.984 M 1200 220.500 L 1200 226 1196.500 226 L 1193 226 1193 231.500 L 1193 237 1196.500 237 L 1200 237 1200 249.032 C 1200 265.714, 1202.399 270.415, 1212.266 273.072 C 1216.692 274.263, 1224.945 273.492, 1227.462 271.652 C 1228.946 270.566, 1228.934 270.081, 1227.316 265.714 C 1225.999 262.162, 1225.166 261.122, 1224.026 261.607 C 1220.187 263.242, 1218.108 263.108, 1216.098 261.098 C 1214.222 259.222, 1214 257.838, 1214 248 L 1214 237 1220 237 L 1226 237 1226 231.500 L 1226 226 1220 226 L 1214 226 1214 220.500 L 1214 215 1207 215 L 1200 215 1200 220.500 M 196 304 L 196 392 337.500 392 L 479 392 479 304 L 479 216 445.500 216 L 412 216 412 243 L 412 270 385 270 L 358 270 358 297 L 358 324 337.500 324 L 317 324 317 297 L 317 270 290 270 L 263 270 263 243 L 263 216 229.500 216 L 196 216 196 304 M 602.500 223.502 C 589.556 228.079, 585.893 246.129, 595.882 256.118 C 603.595 263.830, 615.697 263.766, 623.130 255.973 C 635.166 243.356, 626.182 221.786, 609 222.049 C 607.625 222.071, 604.700 222.724, 602.500 223.502 M 653.709 225.624 C 653.319 226.014, 653 240.658, 653 258.167 L 653 290 660 290 L 667 290 667 279.500 C 667 273.725, 667.199 269, 667.443 269 C 667.686 269, 669.599 270.012, 671.693 271.250 C 676.837 274.290, 686.710 274.275, 692.624 271.219 C 700.964 266.909, 705 259.711, 705 249.146 C 705 239.406, 701.504 232.771, 693.957 228.184 C 688.839 225.075, 688.023 224.889, 680.829 225.188 C 674.797 225.439, 672.513 225.984, 670.146 227.734 L 667.134 229.961 666.817 227.730 C 666.535 225.743, 665.841 225.468, 660.459 225.208 C 657.136 225.047, 654.099 225.234, 653.709 225.624 M 724.500 227.377 C 718.542 230.187, 715.826 232.952, 713.084 239 C 709.119 247.745, 711.455 260.566, 718.130 266.701 C 724.068 272.159, 735.375 274.894, 744.319 273.038 C 749.830 271.893, 755.996 268.567, 756.725 266.344 C 756.933 265.708, 755.695 263.584, 753.973 261.622 C 750.965 258.196, 750.749 258.118, 748.444 259.629 C 741.922 263.902, 732.344 263.166, 727.750 258.038 C 726.237 256.350, 725 254.526, 725 253.984 C 725 253.375, 731.859 253, 743 253 L 761 253 761 248.866 C 761 239.478, 755.837 231.036, 747.682 227.088 C 741.490 224.091, 731.197 224.219, 724.500 227.377 M 770.709 225.624 C 770.319 226.014, 770 236.833, 770 249.667 L 770 273 777 273 L 784 273 784.006 260.750 C 784.012 246.637, 785.028 241.910, 788.669 239.045 C 792.078 236.364, 798.907 236.295, 802.139 238.909 C 804.416 240.751, 804.511 241.390, 804.819 256.909 L 805.138 273 812.069 273 L 819 273 818.978 256.250 C 818.954 238.105, 818.034 234.039, 812.882 229.317 C 807.408 224.299, 796.489 223.405, 788.718 227.339 L 784.097 229.679 783.799 227.589 C 783.539 225.773, 782.712 225.462, 777.459 225.208 C 774.136 225.047, 771.099 225.234, 770.709 225.624 M 916.500 227.377 C 910.542 230.187, 907.826 232.952, 905.084 239 C 901.119 247.745, 903.455 260.566, 910.130 266.701 C 916.068 272.159, 927.375 274.894, 936.319 273.038 C 941.830 271.893, 947.996 268.567, 948.725 266.344 C 948.933 265.708, 947.695 263.584, 945.973 261.622 C 942.965 258.196, 942.749 258.118, 940.444 259.629 C 933.922 263.902, 924.344 263.166, 919.750 258.038 C 918.237 256.350, 917 254.526, 917 253.984 C 917 253.375, 923.859 253, 935 253 L 953 253 953 248.866 C 953 239.478, 947.837 231.036, 939.682 227.088 C 933.490 224.091, 923.197 224.219, 916.500 227.377 M 962.709 225.624 C 962.319 226.014, 962 236.833, 962 249.667 L 962 273 969 273 L 976 273 976 260.625 C 976 253.819, 976.280 246.850, 976.622 245.139 C 978.175 237.377, 987.912 234.086, 993.076 239.579 C 995.389 242.039, 995.516 242.864, 995.840 257.579 L 996.179 273 1003.090 273 L 1010 273 1010 257.923 L 1010 242.846 1012.923 239.923 C 1015.039 237.807, 1016.812 237, 1019.341 237 C 1027.864 237, 1029 239.522, 1029 258.450 L 1029 273 1036 273 L 1043 273 1042.994 257.250 C 1042.991 248.588, 1042.524 239.826, 1041.956 237.781 C 1040.632 233.014, 1036.491 228.103, 1032.329 226.364 C 1025.294 223.425, 1012.064 225.584, 1008.153 230.311 C 1006.932 231.787, 1006.433 231.639, 1002.800 228.719 C 999.024 225.685, 998.327 225.500, 990.647 225.500 C 983.781 225.500, 982 225.857, 979.322 227.767 L 976.144 230.034 975.822 227.767 C 975.533 225.736, 974.872 225.470, 969.459 225.208 C 966.136 225.047, 963.099 225.234, 962.709 225.624 M 1055.709 225.624 C 1055.319 226.014, 1055 240.658, 1055 258.167 L 1055 290 1062 290 L 1069 290 1069 279.500 C 1069 273.725, 1069.199 269, 1069.443 269 C 1069.686 269, 1071.599 270.012, 1073.693 271.250 C 1078.837 274.290, 1088.710 274.275, 1094.624 271.219 C 1102.964 266.909, 1107 259.711, 1107 249.146 C 1107 239.406, 1103.504 232.771, 1095.957 228.184 C 1090.839 225.075, 1090.023 224.889, 1082.829 225.188 C 1076.797 225.439, 1074.513 225.984, 1072.146 227.734 L 1069.134 229.961 1068.817 227.730 C 1068.535 225.743, 1067.841 225.468, 1062.459 225.208 C 1059.136 225.047, 1056.099 225.234, 1055.709 225.624 M 1150.500 226.392 C 1148.300 227.085, 1145.488 228.195, 1144.251 228.860 L 1142.002 230.070 1144.483 234.967 L 1146.965 239.864 1150.232 238.223 C 1152.030 237.320, 1156.232 236.403, 1159.572 236.185 C 1164.861 235.841, 1165.979 236.093, 1168.241 238.145 C 1169.670 239.440, 1171.130 241.512, 1171.487 242.750 C 1172.121 244.952, 1171.961 245, 1164.010 245 C 1149.062 245, 1141.912 248.644, 1140.504 256.978 C 1138.237 270.395, 1156.840 279.026, 1169.503 270.434 L 1173.032 268.038 1172.582 270.519 C 1172.138 272.968, 1172.224 273, 1179.165 273 L 1186.198 273 1185.822 255.750 C 1185.422 237.386, 1184.859 234.992, 1179.831 230.298 C 1175.794 226.528, 1170.650 224.995, 1162.282 225.067 C 1158.002 225.104, 1152.700 225.700, 1150.500 226.392 M 1246.500 227.377 C 1240.542 230.187, 1237.826 232.952, 1235.084 239 C 1231.119 247.745, 1233.455 260.566, 1240.130 266.701 C 1246.068 272.159, 1257.375 274.894, 1266.319 273.038 C 1271.830 271.893, 1277.996 268.567, 1278.725 266.344 C 1278.933 265.708, 1277.695 263.584, 1275.973 261.622 C 1272.965 258.196, 1272.749 258.118, 1270.444 259.629 C 1263.922 263.902, 1254.344 263.166, 1249.750 258.038 C 1248.237 256.350, 1247 254.526, 1247 253.984 C 1247 253.375, 1253.859 253, 1265 253 L 1283 253 1283 248.866 C 1283 239.478, 1277.837 231.036, 1269.682 227.088 C 1263.490 224.091, 1253.197 224.219, 1246.500 227.377 M 209 250 L 209 270 229.500 270 L 250 270 250 250 L 250 230 229.500 230 L 209 230 209 250 M 425 250 L 425 270 445.500 270 L 466 270 466 250 L 466 230 445.500 230 L 425 230 425 250 M 731.388 235.980 C 728.913 236.980, 725 241.669, 725 243.635 C 725 244.709, 727.449 245, 736.500 245 C 742.825 245, 748 244.753, 748 244.450 C 748 244.148, 747.317 242.581, 746.483 240.967 C 743.902 235.975, 737.024 233.703, 731.388 235.980 M 923.388 235.980 C 920.913 236.980, 917 241.669, 917 243.635 C 917 244.709, 919.449 245, 928.500 245 C 934.825 245, 940 244.753, 940 244.450 C 940 244.148, 939.317 242.581, 938.483 240.967 C 935.902 235.975, 929.024 233.703, 923.388 235.980 M 1253.388 235.980 C 1250.913 236.980, 1247 241.669, 1247 243.635 C 1247 244.709, 1249.449 245, 1258.500 245 C 1264.825 245, 1270 244.753, 1270 244.450 C 1270 244.148, 1269.317 242.581, 1268.483 240.967 C 1265.902 235.975, 1259.024 233.703, 1253.388 235.980 M 674.500 236.954 C 665.557 240.653, 664.626 256.170, 673.085 260.544 C 676.774 262.451, 682.984 262.400, 685.783 260.439 C 690.764 256.950, 692.570 247.936, 689.483 241.967 C 686.920 237.011, 679.978 234.688, 674.500 236.954 M 1076.500 236.954 C 1067.557 240.653, 1066.626 256.170, 1075.085 260.544 C 1078.774 262.451, 1084.984 262.400, 1087.783 260.439 C 1092.764 256.950, 1094.570 247.936, 1091.483 241.967 C 1088.920 237.011, 1081.978 234.688, 1076.500 236.954 M 1156.223 254.557 C 1151.201 258.074, 1154.768 264, 1161.906 264 C 1165.268 264, 1166.764 263.390, 1169.077 261.077 C 1170.795 259.359, 1172 257.092, 1172 255.577 C 1172 253.061, 1171.839 253, 1165.223 253 C 1160.707 253, 1157.703 253.520, 1156.223 254.557 M 209 304 L 209 324 229.500 324 L 250 324 250 304 L 250 284 229.500 284 L 209 284 209 304 M 263 304 L 263 324 283.500 324 L 304 324 304 304 L 304 284 283.500 284 L 263 284 263 304 M 371 304 L 371 324 391.500 324 L 412 324 412 304 L 412 284 391.500 284 L 371 284 371 304 M 425 304 L 425 324 445.500 324 L 466 324 466 304 L 466 284 445.500 284 L 425 284 425 304 M 209 358 L 209 378 229.500 378 L 250 378 250 358 L 250 338 229.500 338 L 209 338 209 358 M 263 358 L 263 378 283.500 378 L 304 378 304 358 L 304 338 283.500 338 L 263 338 263 358 M 317 358 L 317 378 337.500 378 L 358 378 358 358 L 358 338 337.500 338 L 317 338 317 358 M 371 358 L 371 378 391.500 378 L 412 378 412 358 L 412 338 391.500 338 L 371 338 371 358 M 425 358 L 425 378 445.500 378 L 466 378 466 358 L 466 338 445.500 338 L 425 338 425 358" stroke="none" fill="#04acb4" fill-rule="evenodd"/></svg>